<?xml version="1.0" encoding="utf-8"?>
<!-- Generator: Adobe Illustrator 19.0.0, SVG Export Plug-In . SVG Version: 6.00 Build 0)  -->
<svg version="1.1" id="Layer_1" xmlns="http://www.w3.org/2000/svg"  x="0px" y="0px"
	 viewBox="0 0 256 256" enable-background="new 0 0 256 256" xml:space="preserve">
<g id="XMLID_1_" display="none">
	<path display="inline" d="M157.014,124.711l-18.513-18.514l11.475-11.475c0.508-0.508,0.793-1.197,0.793-1.915
		s-0.285-1.407-0.793-1.915l-4.299-4.299c-2.3-2.3-5.357-3.566-8.609-3.566c-3.253,0-6.31,1.267-8.61,3.566L100.98,114.07
		c-4.747,4.748-4.747,12.472,0,17.219l18.513,18.513l-11.474,11.476c-0.508,0.508-0.793,1.197-0.793,1.915
		c0,0.718,0.285,1.407,0.793,1.915l4.299,4.299c2.3,2.3,5.357,3.566,8.61,3.566s6.31-1.266,8.61-3.566l27.476-27.477
		c2.3-2.3,3.566-5.357,3.566-8.61C160.58,130.067,159.313,127.01,157.014,124.711z M141.847,90.423l2.385,2.385l-9.561,9.56
		l-2.384-2.385c-2.635-2.635-2.636-6.921-0.003-9.557l0.003-0.003c0.001-0.001,0.001-0.001,0.002-0.002
		c1.276-1.276,2.973-1.978,4.779-1.978C138.873,88.442,140.57,89.146,141.847,90.423z M125.708,165.577
		c-1.277,1.277-2.975,1.98-4.78,1.98s-3.504-0.703-4.78-1.98l-2.385-2.384l11.472-11.472c0.001-0.001,0.002-0.002,0.004-0.003
		c0.001-0.001,0.002-0.002,0.003-0.004l12.168-12.168l2.384,2.385c1.728,1.727,3.883,2.872,6.227,3.334L125.708,165.577z
		 M153.184,138.101c-1.277,1.277-2.975,1.98-4.78,1.98c-1.806,0-3.504-0.703-4.78-1.98l-4.299-4.299
		c-0.508-0.508-1.197-0.793-1.915-0.793s-1.407,0.285-1.915,0.793l-12.172,12.171L104.81,127.46c-2.636-2.636-2.636-6.925,0-9.561
		l20.32-20.32c0.451,2.286,1.56,4.466,3.327,6.234l24.727,24.727c1.277,1.277,1.98,2.975,1.98,4.78S154.461,136.824,153.184,138.101
		z"/>
</g>
<g>
	<path fill="#FFFFFF" d="M206.342,124.03c0,0-0.017-0.465-0.049-1.367c-0.016-0.451-0.036-1.011-0.06-1.676
		c-0.024-0.664-0.04-1.472-0.126-2.184c-0.068-0.756-0.143-1.599-0.226-2.528c-0.082-0.931-0.27-2.017-0.415-3.151
		c-0.128-1.148-0.394-2.36-0.635-3.659c-0.214-1.305-0.581-2.662-0.924-4.104c-0.313-1.45-0.841-2.926-1.277-4.502
		c-0.248-0.78-0.545-1.564-0.823-2.373c-0.28-0.809-0.562-1.636-0.918-2.456c-1.264-3.339-2.992-6.804-5.026-10.381
		c-4.08-7.146-9.974-14.522-17.754-20.983c-7.761-6.451-17.497-11.913-28.613-14.948c-5.544-1.532-11.406-2.481-17.439-2.743
		c-0.755-0.011-1.512-0.022-2.271-0.033l-1.14-0.017l-0.571-0.009c-0.248,0.001,0.179-0.005,0.075-0.001l-0.159,0.006l-0.318,0.011
		c-0.849,0.03-1.7,0.061-2.553,0.091l-1.281,0.046l-1.086,0.102c-0.721,0.065-1.444,0.13-2.169,0.195
		c-0.715,0.05-1.516,0.201-2.273,0.294c-0.766,0.114-1.539,0.196-2.305,0.333l-2.296,0.439c-12.255,2.4-24.224,8.101-34.22,16.503
		c-9.94,8.447-17.893,19.547-22.376,31.93c-2.306,6.164-3.669,12.643-4.32,19.145c-0.233,3.262-0.403,6.53-0.233,9.786l0.05,1.384
		c0.014,0.469,0.03,0.936,0.075,1.279l0.209,2.256c0.044,0.731,0.171,1.545,0.284,2.344l0.337,2.395
		c1.11,6.34,2.921,12.499,5.511,18.232c2.606,5.72,5.799,11.099,9.625,15.857c7.554,9.608,17.214,16.875,27.272,21.554
		c10.105,4.655,20.581,6.718,30.245,6.815c0.605,0.009,1.206,0.018,1.804,0.027c-0.604,0.01-0.093,0-0.194,0.001l0.129-0.005
		l0.259-0.01l0.516-0.019l1.028-0.039c1.336-0.058,2.843-0.076,3.776-0.215c1.075-0.126,2.066-0.17,3.174-0.333
		c1.113-0.166,2.213-0.329,3.298-0.491c4.319-0.782,8.33-1.894,12.011-3.177c3.677-1.306,6.981-2.867,9.974-4.415
		c2.945-1.639,5.596-3.245,7.854-4.895c4.546-3.256,7.775-6.254,9.862-8.392c1.071-1.043,1.795-1.936,2.332-2.49
		c0.523-0.568,0.792-0.861,0.792-0.861l0.415-0.45c4.675-5.079,12.583-5.406,17.661-0.731c5.079,4.675,5.406,12.583,0.731,17.661
		c-0.031,0.033-0.107,0.115-0.138,0.148c0,0-0.367,0.386-1.079,1.135c-0.728,0.733-1.737,1.89-3.191,3.261
		c-2.853,2.792-7.243,6.713-13.398,10.919c-3.062,2.123-6.63,4.208-10.605,6.29c-4.023,1.991-8.47,3.959-13.392,5.592
		c-4.926,1.61-10.283,2.967-16.017,3.871c-1.438,0.184-2.895,0.37-4.369,0.558c-1.481,0.181-3.135,0.258-4.722,0.379
		c-1.728,0.144-2.93,0.118-4.328,0.151c-0.791,0.012-1.587,0.025-2.386,0.037c-0.784-0.026-1.572-0.052-2.364-0.078
		c-12.658-0.394-26.401-3.409-39.456-9.781c-13.013-6.385-25.3-16.089-34.782-28.681c-4.791-6.248-8.777-13.255-11.961-20.689
		c-3.169-7.446-5.342-15.406-6.573-23.542l-0.371-3.066c-0.12-1.023-0.25-2.031-0.307-3.139l-0.21-3.255
		c-0.043-0.575-0.048-1.03-0.052-1.484l-0.02-1.384c-0.114-4.129,0.166-8.271,0.566-12.401c0.985-8.242,2.915-16.429,5.99-24.171
		c6.02-15.551,16.3-29.259,28.936-39.524c12.688-10.232,27.758-16.988,42.991-19.643c0.953-0.16,1.903-0.32,2.852-0.48
		c0.95-0.147,1.906-0.237,2.855-0.356c0.964-0.101,1.868-0.246,2.874-0.305c0.994-0.066,1.986-0.131,2.975-0.197l1.477-0.09
		l1.282-0.019c0.854-0.013,1.705-0.025,2.555-0.038l0.871-0.008l0.701,0.023l1.398,0.047c0.93,0.035,1.858,0.07,2.784,0.105
		c7.398,0.473,14.579,1.792,21.336,3.815c6.758,2.026,13.101,4.732,18.875,7.974c5.775,3.242,11,6.971,15.632,10.977
		c9.266,8.028,16.17,17.085,20.912,25.793c2.366,4.359,4.34,8.577,5.784,12.62c0.401,0.995,0.724,1.996,1.041,2.974
		c0.315,0.979,0.646,1.929,0.924,2.871c0.497,1.902,1.072,3.688,1.421,5.433c0.38,1.737,0.772,3.373,1.004,4.939
		c0.259,1.561,0.534,3.018,0.667,4.392c0.151,1.38,0.332,2.611,0.418,3.821c0.08,1.212,0.152,2.313,0.217,3.299
		c0.08,1.028,0.075,1.763,0.086,2.431c0.01,0.666,0.018,1.226,0.025,1.677c0.013,0.902,0.02,1.368,0.02,1.368
		c0.062,4.142-3.246,7.55-7.388,7.611C209.863,131.322,206.491,128.094,206.342,124.03z"/>
</g>
<g>
	<path fill="#FFFFFF" d="M136.413,157.227l67.465-2.348c6.44-0.224,11.843,4.815,12.067,11.255c0.02,0.563-0.01,1.183-0.068,1.727
		l-7.645,67.071c-0.47,4.127-4.197,7.091-8.324,6.621c-3.751-0.428-6.541-3.547-6.664-7.211l-2.348-67.465l11.998,12.982
		l-67.071-7.645c-4.127-0.47-7.091-4.197-6.621-8.324C129.63,160.14,132.75,157.351,136.413,157.227z"/>
</g>
</svg>
