<?xml version="1.0" encoding="UTF-8" standalone="no"?>
<!-- Generator: Adobe Illustrator 19.0.0, SVG Export Plug-In . SVG Version: 6.00 Build 0)  -->

<svg
   xmlns:dc="http://purl.org/dc/elements/1.1/"
   xmlns:cc="http://creativecommons.org/ns#"
   xmlns:rdf="http://www.w3.org/1999/02/22-rdf-syntax-ns#"
   xmlns:sodipodi="http://sodipodi.sourceforge.net/DTD/sodipodi-0.dtd"
   xmlns:inkscape="http://www.inkscape.org/namespaces/inkscape"
   xmlns="http://www.w3.org/2000/svg"
   version="1.1"
   id="Layer_1"
   x="0px"
   y="0px"
   viewBox="0 0 256 256"
   enable-background="new 0 0 256 256"
   xml:space="preserve"
   inkscape:version="0.91 r13725"
   sodipodi:docname="favicon.svg"
   inkscape:export-filename="/home/nwalker/Sites/marblizer.nickwalker.us/media/images/favicon.svg.png"
   inkscape:export-xdpi="90"
   inkscape:export-ydpi="90"><metadata
     id="metadata9"><rdf:RDF><cc:Work
         rdf:about=""><dc:format>image/svg+xml</dc:format><dc:type
           rdf:resource="http://purl.org/dc/dcmitype/StillImage" /><dc:title></dc:title></cc:Work></rdf:RDF></metadata><defs
     id="defs7" /><sodipodi:namedview
     pagecolor="#ffffff"
     bordercolor="#666666"
     borderopacity="1"
     objecttolerance="10"
     gridtolerance="10"
     guidetolerance="10"
     inkscape:pageopacity="0"
     inkscape:pageshadow="2"
     inkscape:window-width="2670"
     inkscape:window-height="1560"
     id="namedview5"
     showgrid="false"
     inkscape:zoom="2.6074563"
     inkscape:cx="25.50893"
     inkscape:cy="154.00044"
     inkscape:window-x="0"
     inkscape:window-y="55"
     inkscape:window-maximized="0"
     inkscape:current-layer="Layer_1" /><ellipse
     id="XMLID_2_"
     cx="128"
     cy="128"
     rx="118.06769"
     ry="113.08199"
     style="fill:#891920" /><path
     id="XMLID_3_"
     fill="#FFFFFF"
     d="M106.254,82.495l15.447,55.746c1.176,3.863,2.182,8.397,2.855,11.419  c1.679-3.022,4.03-7.219,6.213-10.746l35.26-57.929c0.673-1.009,3.191-5.876,3.694-6.716c2.688-4.2,5.709-6.885,11.082-6.885h1.176  c6.046,0,9.57,4.87,8.898,11.249c-0.167,3.022-2.013,8.061-2.518,11.249l-13.432,76.569c-0.503,3.189-0.839,8.562-1.176,11.249  c-0.673,6.213-5.54,10.913-11.419,10.913c-6.213,0-9.907-4.701-9.234-11.249c0.167-2.855,2.015-8.059,2.518-11.419l8.395-44.831  c0.673-3.694,1.848-8.731,2.688-12.761l-30.896,50.206c-1.679,2.518-2.855,4.868-4.364,7.052c-2.184,3.022-4.703,4.364-9.573,4.364  c-4.868,0-7.722-2.182-8.898-6.213c-0.839-2.685-1.006-4.197-2.015-7.388l-14.777-53.898c-0.334,3.861-1.173,13.768-2.182,19.814  l-6.885,44.161c-0.503,3.189-1.173,8.562-1.343,11.249c-0.67,6.213-5.373,10.913-11.249,10.913c-6.213,0-10.074-4.701-9.404-11.249  c0.169-2.855,2.182-8.059,2.688-11.419l13.432-76.566c0.503-3.191,1.009-8.564,1.176-11.249c0.673-6.046,5.54-10.746,11.586-10.746  h1.848c4.531,0,7.555,3.525,8.898,8.731C104.909,76.788,105.918,81.489,106.254,82.495z" /></svg>