<?xml version="1.0" encoding="utf-8"?>
<!-- Generator: Adobe Illustrator 19.0.0, SVG Export Plug-In . SVG Version: 6.00 Build 0)  -->
<svg version="1.1" id="Layer_1" xmlns="http://www.w3.org/2000/svg"  x="0px" y="0px"
	 viewBox="0 0 256 256" enable-background="new 0 0 256 256" xml:space="preserve">
<g>
	<path fill="#FFFFFF" d="M119.555,147.48c-0.663,3.979-0.442,6.631,0.221,9.505c0.442,1.989,2.21,3.315,2.21,5.747
		c0,3.536-2.432,5.968-5.968,5.968c-4.421,0-8.399-5.084-8.399-14.146c0-13.926,5.968-25.42,26.966-39.124
		c12.6-8.178,20.557-17.241,20.557-31.388c0-14.588-11.493-28.956-34.924-28.956c-21.883,0-34.261,14.146-34.261,26.746
		c0,3.979,1.547,4.863,1.547,7.957c0,3.095-2.431,5.305-5.083,5.305c-4.642,0-7.516-3.979-7.516-12.157
		c0-18.567,17.904-37.577,45.313-37.577c29.619,0,45.534,19.23,45.534,38.903c0,15.252-7.073,26.746-24.094,38.461
		C127.733,132.229,121.102,138.639,119.555,147.48z M108.503,198.762c0-4.643,3.757-8.179,8.399-8.179
		c4.421,0,8.178,3.536,8.178,8.179c0,4.421-3.757,8.178-8.178,8.178C112.26,206.939,108.503,203.183,108.503,198.762z"/>
</g>
</svg>
