<?xml version="1.0" encoding="utf-8"?>
<!-- Generator: Adobe Illustrator 19.0.0, SVG Export Plug-In . SVG Version: 6.00 Build 0)  -->
<svg version="1.1" id="Layer_1" xmlns="http://www.w3.org/2000/svg"  x="0px" y="0px"
	 viewBox="0 0 249.985 54.046" enable-background="new 0 0 249.985 54.046" xml:space="preserve">
<g id="XMLID_1_">
	<path id="XMLID_3_" fill="#FFFFFF" d="M18.49,11.555l5.32,19.198c0.405,1.33,0.751,2.892,0.983,3.932
		c0.578-1.041,1.388-2.486,2.139-3.701l12.143-19.949c0.232-0.347,1.099-2.024,1.272-2.313c0.926-1.446,1.966-2.371,3.817-2.371
		h0.405c2.082,0,3.296,1.677,3.064,3.874c-0.057,1.041-0.693,2.776-0.867,3.874L42.14,40.467c-0.173,1.098-0.289,2.948-0.405,3.874
		c-0.232,2.139-1.908,3.758-3.932,3.758c-2.139,0-3.412-1.619-3.18-3.874c0.057-0.983,0.694-2.775,0.867-3.932l2.891-15.439
		c0.232-1.272,0.636-3.007,0.926-4.395l-10.64,17.29c-0.578,0.867-0.983,1.676-1.503,2.429c-0.752,1.041-1.62,1.503-3.297,1.503
		c-1.676,0-2.659-0.751-3.064-2.139c-0.289-0.925-0.347-1.445-0.694-2.544L15.02,18.436c-0.115,1.33-0.404,4.741-0.751,6.823
		l-2.371,15.208c-0.173,1.098-0.404,2.948-0.462,3.874c-0.231,2.139-1.85,3.758-3.874,3.758c-2.139,0-3.469-1.619-3.238-3.874
		c0.058-0.983,0.751-2.775,0.926-3.932l4.626-26.368c0.173-1.099,0.347-2.949,0.405-3.874c0.232-2.082,1.908-3.701,3.99-3.701h0.636
		c1.56,0,2.602,1.214,3.064,3.007C18.027,9.589,18.374,11.208,18.49,11.555z"/>
	<path id="XMLID_5_" fill="#FFFFFF" d="M48.85,36.014c0-9.483,6.476-16.942,14.34-16.942c2.892,0,5.147,1.215,6.65,2.892
		c0.694-1.215,1.85-2.024,3.238-2.024c2.024,0,3.412,1.677,3.18,3.643c-0.057,1.099-0.925,2.66-1.098,3.874L73.02,39.311
		c-0.347,1.965-0.347,2.602,0.115,2.602c0.289,0,0.463-0.173,1.099-0.173c1.677,0,2.833,1.214,2.833,2.833
		c0,1.966-1.85,3.527-4.626,3.527c-2.313,0-4.221-1.214-5.03-3.469c-1.677,2.313-4.626,3.932-7.922,3.932
		C53.302,48.562,48.85,43.532,48.85,36.014z M67.006,35.957l1.504-8.847c-0.926-1.561-2.544-2.602-4.741-2.602
		c-4.915,0-8.327,5.782-8.327,11.449c0,4.568,2.197,6.939,5.205,6.939C63.594,42.896,66.139,40.871,67.006,35.957z"/>
	<path id="XMLID_8_" fill="#FFFFFF" d="M82.099,44.226c0.058-0.925,0.636-2.602,0.81-3.643l2.082-11.738
		c0.404-2.082,0.289-2.718-0.058-2.718c-0.232,0-0.462,0.173-1.156,0.173C82.157,26.3,81,25.086,81,23.467
		c0-1.966,1.85-3.527,4.626-3.527c2.66,0,4.395,1.677,4.915,4.511c1.793-2.949,4.742-5.378,8.211-5.378
		c2.429,0,4.221,1.33,4.221,3.47c0,1.908-1.504,3.642-3.47,3.642c-1.676,0-2.081-0.751-3.122-0.751
		c-0.463,0-1.041,0.116-1.504,0.462c-1.966,1.388-3.412,3.643-4.106,7.864l-1.214,6.939c-0.174,1.099-0.289,2.892-0.405,3.759
		c-0.232,2.139-1.966,3.642-3.874,3.642C83.314,48.1,81.868,46.481,82.099,44.226z"/>
	<path id="XMLID_10_" fill="#FFFFFF" d="M104.767,43.994c-0.926-1.272-1.272-3.007-0.926-4.915l4.395-24.922
		c0.405-2.139,0.232-2.66-0.058-2.66s-0.521,0.173-1.156,0.173c-1.677,0-2.833-1.272-2.833-2.833c0-1.965,1.85-3.527,4.684-3.527
		c3.469,0,5.84,2.659,5.84,7.112c0,0.983-0.173,2.602-0.347,3.527l-1.098,6.303c1.561-1.966,3.874-3.181,6.534-3.181
		c6.533,0,10.119,5.609,10.119,12.259c0,9.657-6.303,17.232-15.324,17.232C110.781,48.562,106.791,46.77,104.767,43.994z
		 M110.26,39.484c-0.173,1.214,0.116,1.85,0.868,2.429c0.867,0.694,2.197,1.041,3.412,1.041c5.088,0,8.731-5.494,8.731-11.565
		c0-4.163-1.85-6.65-4.915-6.65c-3.296,0-6.071,3.238-6.765,7.401L110.26,39.484z"/>
	<path id="XMLID_13_" fill="#FFFFFF" d="M141.429,41.913c0.462,0,0.636-0.173,1.156-0.173c1.618,0,2.833,1.214,2.833,2.775
		c0,1.966-1.794,3.585-4.568,3.585c-3.586,0-6.188-2.775-6.188-6.939c0-1.503,0.289-3.122,0.521-4.51l4.162-23.939
		c0.174-1.099,0.289-2.892,0.406-3.817c0.23-2.082,1.966-3.585,3.873-3.585c2.024,0,3.469,1.619,3.239,3.758
		c-0.059,0.983-0.695,2.66-0.867,3.758l-4.396,24.402c-0.404,2.139-0.521,3.123-0.521,3.701
		C141.023,41.565,141.197,41.913,141.429,41.913z"/>
	<path id="XMLID_15_" fill="#FFFFFF" d="M151.606,41.508c0-1.793,0.347-3.527,0.867-5.609l1.735-7.171
		c0.578-2.255,0.463-3.18,0.057-3.18c-0.347,0-0.636,0.173-1.156,0.173c-1.56,0-2.833-1.214-2.833-2.775
		c0-1.966,1.794-3.586,4.568-3.586c2.893,0,5.263,1.677,5.841,4.857c0.347,1.735,0.173,3.527-0.463,6.361l-1.56,6.766
		c-0.463,2.197-0.695,3.123-0.695,3.816c0,0.521,0.232,0.752,0.463,0.752c0.404,0,0.578-0.173,1.156-0.173
		c1.562,0,2.776,1.214,2.776,2.775c0,1.966-1.794,3.585-4.568,3.585C154.325,48.1,151.606,45.44,151.606,41.508z M155.596,10.803
		c0-2.139,1.851-3.874,4.047-3.874c2.255,0,4.047,1.735,4.047,3.874c0,2.198-1.792,3.932-4.047,3.932
		C157.447,14.735,155.596,13.001,155.596,10.803z"/>
	<path id="XMLID_18_" fill="#FFFFFF" d="M173.001,47.406c-2.313,0-2.833,0.867-4.741,0.867c-1.736,0-3.182-1.387-3.182-3.122
		c0-1.272,0.695-2.487,1.851-3.586l13.589-13.415c0.867-0.867,2.024-1.735,3.006-2.486h-0.23c-3.123,0-6.362-1.156-8.559-1.156
		c-0.982,0-1.503,0.173-1.503,0.636c0,0.232,0.232,0.694,0.232,1.041c0,1.561-1.388,2.66-2.948,2.66
		c-1.851,0-3.297-1.561-3.297-3.585c0-3.354,2.602-6.129,7.576-6.129c3.295,0,6.823,1.387,9.368,1.387
		c2.313,0,3.063-0.867,4.972-0.867c1.735,0,3.008,1.33,3.008,3.065c0,1.272-0.752,2.544-1.909,3.642l-13.821,13.647
		c-0.751,0.752-1.677,1.504-2.602,2.198h0.232c3.643,0,6.649,1.214,9.194,1.214c0.926,0,1.445-0.231,1.445-0.636
		c0-0.289-0.173-0.694-0.173-1.099c0-1.561,1.445-2.66,3.006-2.66c1.909,0,3.297,1.62,3.297,3.643c0,3.354-2.659,6.072-7.401,6.072
		C179.883,48.736,175.662,47.406,173.001,47.406z"/>
	<path id="XMLID_20_" fill="#FFFFFF" d="M200.874,35.841c0.174,4.568,2.487,7.344,6.708,7.344c2.024,0,3.873-0.752,4.857-2.198
		c0.636-0.925,1.56-1.619,3.006-1.619c1.851,0,3.123,1.388,3.123,2.891c0,1.215-0.578,2.082-1.445,3.007
		c-2.024,2.024-5.435,3.296-9.54,3.296c-7.518,0-12.896-5.204-12.896-13.415c0-8.731,5.956-16.075,14.862-16.075
		c6.36,0,10.407,3.817,10.407,8.5c0,4.973-4.453,9.02-12.722,9.02C205.27,36.592,203.244,36.362,200.874,35.841z M201.337,31.389
		c1.85,0.347,3.584,0.578,5.378,0.578c4.509,0,6.938-1.966,6.938-4.337c0-1.965-1.851-3.353-4.394-3.353
		C205.616,24.276,202.377,27.167,201.337,31.389z"/>
	<path id="XMLID_23_" fill="#FFFFFF" d="M224.815,44.226c0.058-0.925,0.636-2.602,0.808-3.643l2.083-11.738
		c0.404-2.082,0.289-2.718-0.057-2.718c-0.232,0-0.463,0.173-1.158,0.173c-1.618,0-2.774-1.214-2.774-2.833
		c0-1.966,1.85-3.527,4.626-3.527c2.659,0,4.394,1.677,4.915,4.511c1.794-2.949,4.742-5.378,8.211-5.378
		c2.429,0,4.221,1.33,4.221,3.47c0,1.908-1.503,3.642-3.469,3.642c-1.677,0-2.083-0.751-3.123-0.751
		c-0.463,0-1.041,0.116-1.505,0.462c-1.965,1.388-3.41,3.643-4.105,7.864l-1.214,6.939c-0.174,1.099-0.289,2.892-0.406,3.759
		c-0.23,2.139-1.966,3.642-3.873,3.642C226.029,48.1,224.583,46.481,224.815,44.226z"/>
</g>
</svg>
