<?xml version="1.0" encoding="utf-8"?>
<!-- Generator: Adobe Illustrator 19.0.0, SVG Export Plug-In . SVG Version: 6.00 Build 0)  -->
<svg version="1.1" id="Layer_1" xmlns="http://www.w3.org/2000/svg"  x="0px" y="0px"
	 viewBox="0 0 256 256" enable-background="new 0 0 256 256" xml:space="preserve">
<path id="XMLID_7_" d="M128,26.807C72.112,26.807,26.807,72.112,26.807,128S72.112,229.193,128,229.193S229.193,183.888,229.193,128
	S183.888,26.807,128,26.807z M190.879,78.442c-0.167,3.022-2.013,8.157-2.518,11.346l-13.432,76.617
	c-0.503,3.189-0.839,8.586-1.176,11.274c-0.672,6.213-5.54,10.925-11.419,10.925c-6.213,0-9.907-4.695-9.234-11.243
	c0.167-2.855,2.015-8.055,2.518-11.416l8.395-44.829c0.672-3.694,1.848-8.73,2.688-12.761l-30.896,50.207
	c-1.679,2.518-2.855,4.868-4.364,7.052c-2.185,3.022-4.703,4.364-9.573,4.364c-4.868,0-7.722-2.182-8.898-6.213
	c-0.839-2.685-1.006-4.197-2.015-7.388l-14.777-53.898c-0.334,3.861-1.173,13.768-2.182,19.813l-6.885,44.161
	c-0.503,3.189-1.173,8.562-1.343,11.249c-0.67,6.213-5.373,10.913-11.249,10.913c-6.213,0-10.074-4.701-9.404-11.249
	c0.169-2.855,2.182-8.058,2.688-11.419l13.432-76.566c0.503-3.191,1.009-8.756,1.176-11.442C83.082,71.893,87.95,67,93.996,67h1.848
	c4.531,0,7.555,3.717,8.898,8.923c0.167,0.673,1.176,5.469,1.512,6.476l15.447,55.794c1.176,3.863,2.182,8.421,2.855,11.443
	c1.679-3.022,4.03-7.207,6.213-10.734l35.26-57.923c0.672-1.009,3.191-6.066,3.694-6.905c2.688-4.2,5.709-7.075,11.082-7.075h1.176
	C188.026,67,191.551,72.062,190.879,78.442z"/>
</svg>
