<?xml version="1.0" encoding="utf-8"?>
<!-- Generator: Adobe Illustrator 19.0.0, SVG Export Plug-In . SVG Version: 6.00 Build 0)  -->
<svg version="1.1" id="Layer_1" xmlns="http://www.w3.org/2000/svg"  x="0px" y="0px"
	 viewBox="0 0 256 256" enable-background="new 0 0 256 256" xml:space="preserve">
<g id="XMLID_1_" display="none">
	<path display="inline" d="M157.014,124.711l-18.513-18.514l11.475-11.475c0.508-0.508,0.793-1.197,0.793-1.915
		s-0.285-1.407-0.793-1.915l-4.299-4.299c-2.3-2.3-5.357-3.566-8.609-3.566c-3.253,0-6.31,1.267-8.61,3.566L100.98,114.07
		c-4.747,4.748-4.747,12.472,0,17.219l18.513,18.513l-11.474,11.476c-0.508,0.508-0.793,1.197-0.793,1.915
		c0,0.718,0.285,1.407,0.793,1.915l4.299,4.299c2.3,2.3,5.357,3.566,8.61,3.566s6.31-1.266,8.61-3.566l27.476-27.477
		c2.3-2.3,3.566-5.357,3.566-8.61C160.58,130.067,159.313,127.01,157.014,124.711z M141.847,90.423l2.385,2.385l-9.561,9.56
		l-2.384-2.385c-2.635-2.635-2.636-6.921-0.003-9.557l0.003-0.003c0.001-0.001,0.001-0.001,0.002-0.002
		c1.276-1.276,2.973-1.978,4.779-1.978C138.873,88.442,140.57,89.146,141.847,90.423z M125.708,165.577
		c-1.277,1.277-2.975,1.98-4.78,1.98s-3.504-0.703-4.78-1.98l-2.385-2.384l11.472-11.472c0.001-0.001,0.002-0.002,0.004-0.003
		c0.001-0.001,0.002-0.002,0.003-0.004l12.168-12.168l2.384,2.385c1.728,1.727,3.883,2.872,6.227,3.334L125.708,165.577z
		 M153.184,138.101c-1.277,1.277-2.975,1.98-4.78,1.98c-1.806,0-3.504-0.703-4.78-1.98l-4.299-4.299
		c-0.508-0.508-1.197-0.793-1.915-0.793s-1.407,0.285-1.915,0.793l-12.172,12.171L104.81,127.46c-2.636-2.636-2.636-6.925,0-9.561
		l20.32-20.32c0.451,2.286,1.56,4.466,3.327,6.234l24.727,24.727c1.277,1.277,1.98,2.975,1.98,4.78S154.461,136.824,153.184,138.101
		z"/>
</g>
<g>
	<path fill="none" stroke="#FFFFFF" stroke-width="10" stroke-linecap="round" stroke-linejoin="round" stroke-miterlimit="10" d="
		M89.198,205.603c0,0-13.288,1.187-13.288-13.288c0-13.288,0-43.336,0-43.336L54.931,128c0,0,20.98-20.98,20.98-20.98
		s0-30.048,0-43.336c0-14.475,13.288-13.288,13.288-13.288"/>
	<path fill="none" stroke="#FFFFFF" stroke-width="10" stroke-linecap="round" stroke-linejoin="round" stroke-miterlimit="10" d="
		M166.802,50.397c0,0,13.288-1.187,13.288,13.288c0,13.288,0,43.336,0,43.336l20.98,20.98c0,0-20.98,20.98-20.98,20.98
		s0,30.048,0,43.336c0,14.475-13.288,13.288-13.288,13.288"/>
	<g>
		
			<line fill="none" stroke="#FFFFFF" stroke-width="12" stroke-linecap="round" stroke-linejoin="round" stroke-miterlimit="10" x1="132.135" y1="96.455" x2="132.135" y2="111.789"/>
		
			<line fill="none" stroke="#FFFFFF" stroke-width="12" stroke-linecap="round" stroke-linejoin="round" stroke-miterlimit="10" x1="130.405" y1="150.232" x2="123.865" y2="164.101"/>
	</g>
</g>
</svg>
