<?xml version="1.0" encoding="utf-8"?>
<!-- Generator: Adobe Illustrator 19.0.0, SVG Export Plug-In . SVG Version: 6.00 Build 0)  -->
<svg version="1.1" id="Layer_1" xmlns="http://www.w3.org/2000/svg"  x="0px" y="0px"
	 viewBox="0 0 256 256" enable-background="new 0 0 256 256" xml:space="preserve">
<path fill="none" stroke="#FFFFFF" stroke-width="10" stroke-miterlimit="10" d="M151.395,111.289h13.369
	c11.056,0,20.053-8.997,20.053-20.053s-8.997-20.053-20.053-20.053s-20.053,8.997-20.053,20.053v13.369v46.791v13.369
	c0,11.056,8.997,20.053,20.053,20.053c11.056,0,20.053-8.997,20.053-20.053s-8.997-20.053-20.053-20.053h-13.369h-46.791H91.236
	c-11.056,0-20.053,8.997-20.053,20.053c0,11.056,8.997,20.053,20.053,20.053s20.053-8.997,20.053-20.053v-13.369v-46.791V91.236
	c0-11.056-8.997-20.053-20.053-20.053S71.183,80.18,71.183,91.236s8.997,20.053,20.053,20.053h13.369H151.395z"/>
<path fill="none" stroke="#FFFFFF" stroke-width="10" stroke-miterlimit="10" d="M221.956,200.603
	c0,11.77-9.584,21.354-21.354,21.354H55.397c-11.77,0-21.354-9.584-21.354-21.354V55.397c0-11.77,9.584-21.354,21.354-21.354
	h145.205c11.77,0,21.354,9.584,21.354,21.354V200.603z"/>
</svg>
