<?xml version="1.0" encoding="utf-8"?>
<!-- Generator: Adobe Illustrator 19.0.0, SVG Export Plug-In . SVG Version: 6.00 Build 0)  -->
<svg version="1.1" id="Layer_1" xmlns="http://www.w3.org/2000/svg"  x="0px" y="0px"
	 viewBox="0 0 256 256" enable-background="new 0 0 256 256" xml:space="preserve">
<g id="XMLID_1_" display="none">
	<path display="inline" d="M157.014,124.711l-18.513-18.514l11.475-11.475c0.508-0.508,0.793-1.197,0.793-1.915
		s-0.285-1.407-0.793-1.915l-4.299-4.299c-2.3-2.3-5.357-3.566-8.609-3.566c-3.253,0-6.31,1.267-8.61,3.566L100.98,114.07
		c-4.747,4.748-4.747,12.472,0,17.219l18.513,18.513l-11.474,11.476c-0.508,0.508-0.793,1.197-0.793,1.915
		c0,0.718,0.285,1.407,0.793,1.915l4.299,4.299c2.3,2.3,5.357,3.566,8.61,3.566s6.31-1.266,8.61-3.566l27.476-27.477
		c2.3-2.3,3.566-5.357,3.566-8.61C160.58,130.067,159.313,127.01,157.014,124.711z M141.847,90.423l2.385,2.385l-9.561,9.56
		l-2.384-2.385c-2.635-2.635-2.636-6.921-0.003-9.557l0.003-0.003c0.001-0.001,0.001-0.001,0.002-0.002
		c1.276-1.276,2.973-1.978,4.779-1.978C138.873,88.442,140.57,89.146,141.847,90.423z M125.708,165.577
		c-1.277,1.277-2.975,1.98-4.78,1.98s-3.504-0.703-4.78-1.98l-2.385-2.384l11.472-11.472c0.001-0.001,0.002-0.002,0.004-0.003
		c0.001-0.001,0.002-0.002,0.003-0.004l12.168-12.168l2.384,2.385c1.728,1.727,3.883,2.872,6.227,3.334L125.708,165.577z
		 M153.184,138.101c-1.277,1.277-2.975,1.98-4.78,1.98c-1.806,0-3.504-0.703-4.78-1.98l-4.299-4.299
		c-0.508-0.508-1.197-0.793-1.915-0.793s-1.407,0.285-1.915,0.793l-12.172,12.171L104.81,127.46c-2.636-2.636-2.636-6.925,0-9.561
		l20.32-20.32c0.451,2.286,1.56,4.466,3.327,6.234l24.727,24.727c1.277,1.277,1.98,2.975,1.98,4.78S154.461,136.824,153.184,138.101
		z"/>
</g>
<g>
	<circle id="XMLID_2_" fill="#FFFFFF" cx="163.523" cy="147.355" r="35.523"/>
	<circle id="XMLID_3_" fill="#FFFFFF" cx="103.667" cy="200.998" r="31.122"/>
	<circle id="XMLID_4_" fill="#FFFFFF" cx="179.252" cy="51.364" r="26.508"/>
	<circle id="XMLID_6_" fill="#FFFFFF" cx="179.252" cy="209.681" r="15.962"/>
	<circle id="XMLID_8_" fill="#FFFFFF" cx="211.177" cy="105.014" r="15.962"/>
	<circle id="XMLID_7_" fill="#FFFFFF" cx="48.702" cy="169.876" r="23.843"/>
	<circle id="XMLID_5_" fill="#FFFFFF" cx="90.252" cy="85.844" r="48.542"/>
</g>
</svg>
