<?xml version="1.0" encoding="utf-8"?>
<!-- Generator: Adobe Illustrator 19.0.0, SVG Export Plug-In . SVG Version: 6.00 Build 0)  -->
<svg version="1.1" id="Layer_1" xmlns="http://www.w3.org/2000/svg"  x="0px" y="0px"
	 viewBox="0 0 256 256" enable-background="new 0 0 256 256" xml:space="preserve">
<g>
	<path fill="#FFFFFF" d="M23.308,117.823l110.475,105.525c4.394,4.197,4.554,11.162,0.356,15.556s-11.162,4.554-15.556,0.356
		c-0.112-0.107-0.25-0.246-0.356-0.356L12.701,128.43c-2.862-2.996-2.753-7.745,0.243-10.607
		C15.853,115.045,20.426,115.079,23.308,117.823z"/>
</g>
<g>
	<path fill="#FFFFFF" d="M76.525,63.607L187,169.132c4.394,4.197,4.554,11.162,0.356,15.556c-4.197,4.394-11.162,4.554-15.556,0.356
		c-0.112-0.107-0.25-0.246-0.356-0.356L65.918,74.213c-2.862-2.996-2.753-7.745,0.243-10.607
		C69.069,60.829,73.642,60.863,76.525,63.607z"/>
</g>
<g>
	<path fill="#FFFFFF" d="M131.332,9.799l110.475,105.525c4.394,4.197,4.554,11.162,0.356,15.556s-11.162,4.554-15.556,0.356
		c-0.112-0.107-0.25-0.246-0.356-0.356L120.726,20.406c-2.862-2.996-2.753-7.745,0.243-10.607
		C123.877,7.021,128.45,7.055,131.332,9.799z"/>
</g>
<g>
	<path fill="#FFFFFF" d="M145.291,206.005l2.222,37.02c0.311,5.176-3.633,9.624-8.809,9.934c-0.409,0.025-0.867,0.018-1.266-0.009
		l-36.982-2.777c-4.14-0.311-7.244-3.919-6.933-8.059c0.285-3.798,3.346-6.723,7.046-6.941l37.02-2.222l-10.075,9.925l2.777-36.982
		c0.311-4.14,3.919-7.244,8.059-6.933C142.148,199.245,145.073,202.306,145.291,206.005z"/>
</g>
<g>
	<path fill="#FFFFFF" d="M198.678,152.619l4.722,37.039c0.776,6.088-3.53,11.652-9.618,12.428c-0.994,0.127-2.028,0.108-2.976-0.022
		l-36.964-5.277c-4.138-0.591-7.013-4.424-6.423-8.562c0.492-3.447,3.241-6.016,6.535-6.438l37.039-4.722l-12.593,12.406
		l5.277-36.964c0.591-4.138,4.424-7.013,8.562-6.422C195.687,146.576,198.257,149.325,198.678,152.619z"/>
</g>
<g>
	<path fill="#FFFFFF" d="M253.511,97.786l2.222,37.02c0.311,5.176-3.633,9.624-8.809,9.934c-0.409,0.025-0.867,0.018-1.266-0.009
		l-36.982-2.777c-4.14-0.311-7.244-3.919-6.933-8.059c0.285-3.797,3.346-6.723,7.046-6.941l37.02-2.222l-10.075,9.925l2.777-36.982
		c0.311-4.14,3.919-7.244,8.059-6.933C250.368,91.025,253.293,94.086,253.511,97.786z"/>
</g>
</svg>
