<?xml version="1.0" encoding="utf-8"?>
<!-- Generator: Adobe Illustrator 21.0.2, SVG Export Plug-In . SVG Version: 6.00 Build 0)  -->
<svg version="1.1" id="Layer_1" xmlns="http://www.w3.org/2000/svg"  x="0px" y="0px"
	 viewBox="0 0 256 256" style="enable-background:new 0 0 256 256;" xml:space="preserve">
<style type="text/css">
	.st0{fill:#FFFFFF;}
</style>
<g>
	<path class="st0" d="M162.3,239.8c-15.6,0.2-31.3-2.3-46-7.9c-14.7-5.5-28.4-13.9-40.1-24.4c-11.7-10.5-21.5-23.3-28.6-37.5
		c-7.1-14.2-11.5-29.7-12.9-45.6c-0.4-4-0.5-7.9-0.5-11.9c0-4,0.3-8.1,0.8-12.1c1-8.1,2.9-16,5.8-23.6c5.7-15.2,15-29.1,26.9-40.2
		c11.9-11.1,26.5-19.3,42.2-23.9c7.9-2.2,16-3.6,24.1-4c4-0.2,8.2-0.2,12.4,0.2c4.2,0.3,8.3,1,12.3,1.9
		c16.2,3.6,31.3,11.5,43.5,22.7c6.1,5.6,11.6,12,16,19.1c4.5,7.1,7.9,15,10,23.2c1.1,4.1,1.8,8.4,2.2,12.6c0.2,2.1,0.3,4.3,0.3,6.4
		c0,2.1,0,4.1-0.2,6.2c-0.2,4.1-0.7,8.2-1.5,12.3c-0.8,4.1-1.8,8.1-3.1,12.1c-1.3,3.9-2.9,7.8-4.8,11.6c-1.9,3.7-4,7.4-6.4,10.8
		c-2.4,3.5-5.1,6.8-8.1,9.8c-3,3.1-6.2,5.9-9.7,8.5c-3.5,2.5-7.2,4.8-11.1,6.7c-3.9,1.9-8,3.3-12.2,4.5c-4.2,1.2-8.4,1.8-12.7,2.2
		c-1.1,0.1-2.1,0.2-3.2,0.2l-3.2,0.1c-1,0-2.2,0-3.3-0.1c-1.1,0-2.2-0.2-3.3-0.3c-8.9-1-17.6-4-25.1-8.8c-3.7-2.4-7.2-5.2-10.3-8.4
		c-3.1-3.2-5.8-6.7-8.2-10.5c-4.7-7.5-7.4-16.2-8.2-24.9c-0.1-1.1-0.1-2.2-0.2-3.3c0-1.1,0-2.2,0-3.3c0.1-2.3,0.3-4.5,0.7-6.8
		c0.8-4.5,2.2-8.9,4.2-12.9c4-8.1,10.3-15,18-19.6c1.9-1.2,3.9-2.2,6-3c2-0.9,4.2-1.6,6.3-2.1c4.3-1.1,8.7-1.5,13.1-1.4
		c4.1,0.1,7.4,3.6,7.3,7.7c-0.1,3.9-3.2,7.1-7.1,7.3l-0.2,0c-6,0.3-11.6,2.3-16.4,5.6c-4.7,3.3-8.5,7.9-10.6,13.1
		c-1.1,2.6-1.8,5.3-2.1,8.1c-0.1,1.4-0.2,2.8-0.2,4.2c0,0.7,0.1,1.5,0.1,2.2l0.2,2.2c0.8,5.8,2.9,11.4,6.1,16.3
		c1.6,2.4,3.5,4.7,5.6,6.7c2.1,2,4.4,3.8,6.9,5.3c2.5,1.5,5.1,2.7,7.9,3.5c2.7,0.9,5.6,1.5,8.4,1.7c1.5,0.1,2.8,0.2,4.4,0.1l2.3-0.1
		c0.8,0,1.5-0.1,2.3-0.2c3-0.3,6.1-0.8,8.9-1.7c2.9-0.8,5.7-1.9,8.4-3.3c2.7-1.3,5.3-2.9,7.7-4.7c9.8-7.2,17.1-18.1,21-30.1
		c1-3,1.8-6.1,2.4-9.2c0.6-3.1,1-6.3,1.2-9.5c0.1-1.6,0.1-3.2,0.2-4.8c0-1.5-0.1-3.1-0.2-4.6c-0.3-3.1-0.8-6.1-1.5-9.1
		c-3-12-10-23-19.5-31.7c-9.4-8.6-21.2-14.9-33.7-17.8c-3.1-0.7-6.3-1.2-9.4-1.5c-3.2-0.3-6.3-0.3-9.6-0.2c-6.5,0.2-13,1.3-19.3,3
		c-12.6,3.5-24.3,10-34,18.8c-9.7,8.8-17.4,19.8-22.1,32c-2.4,6.1-4,12.5-4.9,19c-0.5,3.3-0.7,6.5-0.8,9.8c-0.1,3.3,0,6.7,0.2,10.1
		c0.9,13.5,4.4,26.7,10.2,38.9c5.8,12.2,13.9,23.4,23.8,32.8c9.9,9.4,21.5,16.9,34.2,22c12.7,5.1,26.3,8,40.1,8.2l0,0
		c4.1,0.1,7.4,3.5,7.4,7.6C169.6,236.4,166.4,239.7,162.3,239.8z"/>
</g>
<g>
	<path class="st0" d="M108.2,53.5l49.1,11.2c5.1,1.2,8.4,6.3,7.2,11.4c-0.1,0.3-0.2,0.6-0.3,0.9l-16,47.7c-1.3,3.9-5.6,6.1-9.5,4.7
		c-3.7-1.2-5.8-5.1-4.9-8.8l11.2-49.1l6.9,12.3l-47.7-16c-3.9-1.3-6.1-5.6-4.7-9.5C100.6,54.7,104.5,52.7,108.2,53.5z"/>
</g>
</svg>
