<?xml version="1.0" encoding="utf-8"?>
<!-- Generator: Adobe Illustrator 19.0.0, SVG Export Plug-In . SVG Version: 6.00 Build 0)  -->
<svg version="1.1" id="Layer_1" xmlns="http://www.w3.org/2000/svg"  x="0px" y="0px"
	 viewBox="0 0 256 256" enable-background="new 0 0 256 256" xml:space="preserve">
<g>
	<path fill="#FFFFFF" d="M37.647,104.035c0,0,0.45,0.478,1.295,1.373c0.422,0.448,0.943,1,1.555,1.649l0.234,0.248
		c0.093,0.119,0.189,0.24,0.285,0.363c0.193,0.248,0.392,0.504,0.597,0.768c0.406,0.535,0.838,1.103,1.293,1.704
		c0.975,1.209,1.722,2.566,2.59,4.057c0.214,0.374,0.433,0.755,0.656,1.143c0.201,0.4,0.379,0.824,0.572,1.248
		c0.375,0.856,0.763,1.743,1.164,2.66c1.387,3.721,2.3,8.036,2.876,12.113c0.6,4.095,1.072,7.843,2.191,11.053
		c1.09,3.218,2.861,6.112,5.54,9l1.022,1.075l0.509,0.544c-0.135-0.127,0.346,0.332-0.294-0.276l0.044,0.038l0.088,0.077
		l0.177,0.153l0.354,0.307l1.421,1.233l0.714,0.62l0.358,0.311c0.117,0.099,0.252,0.228,0.326,0.258
		c0.705,0.422,1.383,0.866,2.045,1.346c0.818,0.424,1.64,0.851,2.465,1.279c3.353,1.487,7.175,2.069,12.38,2.561l2.049,0.215
		l1.024,0.108l1.1,0.146l2.213,0.305c0.755,0.122,1.555,0.295,2.329,0.444c1.54,0.257,3.164,0.764,4.755,1.225
		c0.799,0.205,1.585,0.548,2.373,0.856l2.35,0.959c1.505,0.745,2.974,1.563,4.429,2.377c1.343,0.915,2.673,1.844,3.985,2.783
		c1.211,0.99,2.352,2.016,3.509,3.029l0.43,0.381l0.215,0.191l0.107,0.095c0.174,0.181-0.315-0.338,0.405,0.418l0.04,0.042
		l0.64,0.678c0.426,0.451,0.85,0.901,1.272,1.349l0.632,0.67l0.315,0.334c0.102,0.105,0.206,0.214,0.35,0.404
		c0.526,0.678,1.049,1.353,1.569,2.025c0.507,0.685,1.012,1.366,1.514,2.044c0.465,0.68,0.822,1.348,1.229,2.022
		c0.39,0.676,0.777,1.348,1.162,2.017c0.382,0.67,0.656,1.397,0.98,2.09c0.306,0.704,0.61,1.403,0.912,2.098
		c0.284,0.698,0.481,1.399,0.717,2.094c0.222,0.697,0.443,1.39,0.662,2.078c0.161,0.669,0.321,1.333,0.48,1.992
		c0.15,0.658,0.298,1.31,0.446,1.958c0.108,0.611,0.214,1.217,0.32,1.819c0.101,0.595,0.201,1.185,0.3,1.769
		c0.079,0.543,0.157,1.081,0.235,1.614c0.147,1.005,0.292,1.991,0.433,2.957c0.532,3.669,1.176,6.176,1.929,8.194
		c0.234,0.474,0.449,0.934,0.648,1.382c0.103,0.222,0.187,0.448,0.296,0.658c0.128,0.202,0.253,0.4,0.375,0.594
		c0.487,0.777,0.851,1.518,1.407,2.132c0.512,0.625,0.88,1.207,1.325,1.69c0.464,0.479,0.859,0.886,1.18,1.217
		c0.628,0.669,0.963,1.026,0.963,1.026l0.697,0.742c4.156,4.428,3.936,11.388-0.493,15.544c-4.428,4.156-11.388,3.936-15.544-0.493
		c-0.062-0.066-0.156-0.17-0.216-0.237c0,0-0.546-0.617-1.569-1.772c-0.505-0.582-1.128-1.3-1.861-2.144
		c-0.717-0.87-1.468-2.016-2.329-3.231c-0.893-1.182-1.693-2.709-2.569-4.342c-0.217-0.409-0.437-0.827-0.663-1.253
		c-0.203-0.437-0.381-0.9-0.576-1.362c-0.372-0.932-0.757-1.898-1.156-2.896c-1.36-4.032-2.16-8.626-2.579-12.775
		c-0.442-4.178-0.731-7.781-1.597-10.804c-0.112-0.377-0.186-0.784-0.322-1.148c-0.142-0.358-0.285-0.719-0.429-1.082
		c-0.153-0.359-0.244-0.749-0.438-1.099c-0.189-0.353-0.378-0.707-0.569-1.064c-0.19-0.347-0.361-0.752-0.559-1.067
		c-0.207-0.287-0.407-0.579-0.602-0.879c-0.194-0.3-0.383-0.608-0.567-0.926c-0.025-0.066-0.126-0.182-0.232-0.301l-0.301-0.347
		l-0.604-0.696c-0.403-0.465-0.808-0.932-1.215-1.4l-0.611-0.704l-0.038-0.044c0.691,0.729,0.173,0.185,0.318,0.339l-0.066-0.061
		l-0.132-0.123l-0.264-0.247c-0.699-0.665-1.403-1.336-2.112-2.01c-0.74-0.547-1.474-1.112-2.205-1.699
		c-0.767-0.457-1.538-0.917-2.312-1.378c-3.151-1.634-6.909-2.443-12.095-3.15l-2.038-0.296l-1.018-0.148l-1.092-0.186l-2.194-0.385
		c-0.747-0.147-1.537-0.346-2.3-0.521c-1.52-0.309-3.113-0.863-4.669-1.37c-0.782-0.228-1.548-0.591-2.314-0.92l-2.282-1.017
		c-1.46-0.782-2.871-1.631-4.277-2.474c-1.412-1.023-2.798-2.072-4.145-3.136c-1.031-0.92-1.868-1.747-2.802-2.616l-1.011-0.964
		l-0.742-0.838c-0.49-0.56-0.978-1.118-1.465-1.673c-0.479-0.565-0.974-1.094-1.428-1.686c-0.436-0.618-0.871-1.234-1.303-1.846
		c-0.426-0.616-0.849-1.229-1.27-1.838c-0.402-0.627-0.743-1.314-1.108-1.966c-0.354-0.661-0.705-1.318-1.055-1.972
		c-0.347-0.653-0.585-1.361-0.874-2.035c-0.271-0.682-0.541-1.36-0.809-2.034c-0.251-0.676-0.416-1.357-0.621-2.029
		c-1.578-5.423-1.864-10.24-2.281-13.938c-0.375-3.74-0.905-6.527-1.63-8.857c-0.22-0.558-0.434-1.097-0.64-1.618
		c-0.104-0.261-0.189-0.525-0.298-0.772c-0.13-0.239-0.257-0.474-0.382-0.704c-0.495-0.919-0.911-1.831-1.386-2.417
		c-0.218-0.33-0.424-0.642-0.617-0.935c-0.094-0.15-0.186-0.295-0.274-0.435l-0.129-0.209l-0.223-0.257
		c-0.585-0.674-1.082-1.247-1.485-1.712c-0.806-0.93-1.237-1.426-1.237-1.426c-2.715-3.129-2.378-7.867,0.751-10.582
		c3.046-2.642,7.616-2.394,10.361,0.507L37.647,104.035z"/>
</g>
<g>
	<path fill="#FFFFFF" d="M86.864,53.818c0,0,0.45,0.478,1.295,1.373c0.422,0.448,0.943,1,1.555,1.649l0.234,0.248
		c0.093,0.119,0.189,0.24,0.285,0.363c0.193,0.248,0.392,0.504,0.597,0.768c0.406,0.535,0.838,1.103,1.293,1.704
		c0.975,1.209,1.722,2.566,2.59,4.057c0.214,0.374,0.433,0.755,0.656,1.143c0.201,0.4,0.379,0.824,0.572,1.248
		c0.375,0.856,0.763,1.743,1.164,2.66c1.387,3.721,2.3,8.036,2.876,12.113c0.6,4.095,1.072,7.843,2.191,11.053
		c1.09,3.218,2.861,6.112,5.54,9l1.022,1.075l0.509,0.544c-0.135-0.127,0.346,0.332-0.294-0.276l0.044,0.038l0.088,0.077
		l0.177,0.153l0.354,0.307l1.421,1.233l0.714,0.62l0.358,0.311c0.117,0.099,0.252,0.228,0.326,0.258
		c0.705,0.422,1.383,0.866,2.045,1.346c0.818,0.424,1.64,0.851,2.465,1.279c3.353,1.487,7.175,2.069,12.38,2.561l2.049,0.215
		l1.024,0.108l1.1,0.146l2.213,0.305c0.755,0.122,1.555,0.295,2.329,0.444c1.54,0.257,3.164,0.764,4.755,1.225
		c0.799,0.205,1.585,0.548,2.373,0.856l2.35,0.959c1.505,0.745,2.974,1.563,4.429,2.377c1.343,0.915,2.673,1.844,3.985,2.783
		c1.211,0.99,2.352,2.016,3.509,3.029l0.43,0.381l0.215,0.191l0.107,0.095c0.174,0.181-0.315-0.338,0.405,0.418l0.04,0.042
		l0.64,0.678c0.426,0.451,0.85,0.901,1.272,1.349l0.632,0.67l0.315,0.334c0.102,0.105,0.206,0.214,0.35,0.404
		c0.526,0.678,1.049,1.353,1.569,2.025c0.507,0.685,1.012,1.366,1.514,2.044c0.465,0.68,0.822,1.348,1.229,2.022
		c0.39,0.676,0.777,1.348,1.162,2.017c0.382,0.67,0.656,1.397,0.98,2.09c0.306,0.704,0.61,1.403,0.912,2.098
		c0.284,0.698,0.481,1.399,0.717,2.094c0.222,0.698,0.443,1.39,0.662,2.078c0.161,0.669,0.321,1.333,0.48,1.992
		c0.15,0.658,0.298,1.31,0.446,1.958c0.108,0.611,0.214,1.217,0.32,1.819c0.101,0.595,0.201,1.185,0.3,1.769
		c0.079,0.543,0.157,1.081,0.235,1.614c0.147,1.005,0.292,1.991,0.433,2.957c0.532,3.669,1.176,6.176,1.929,8.194
		c0.234,0.474,0.449,0.934,0.648,1.382c0.103,0.222,0.187,0.448,0.296,0.658c0.128,0.202,0.253,0.4,0.375,0.594
		c0.487,0.777,0.851,1.518,1.407,2.132c0.512,0.625,0.88,1.207,1.325,1.69c0.464,0.479,0.86,0.887,1.18,1.217
		c0.628,0.669,0.963,1.026,0.963,1.026l0.697,0.742c4.156,4.428,3.936,11.388-0.493,15.544c-4.428,4.156-11.388,3.936-15.544-0.493
		c-0.062-0.066-0.156-0.17-0.216-0.237c0,0-0.546-0.617-1.569-1.772c-0.505-0.582-1.128-1.3-1.861-2.144
		c-0.717-0.87-1.468-2.016-2.329-3.231c-0.893-1.182-1.693-2.709-2.569-4.342c-0.217-0.409-0.437-0.827-0.663-1.253
		c-0.203-0.438-0.381-0.9-0.576-1.362c-0.372-0.932-0.757-1.898-1.156-2.896c-1.36-4.032-2.16-8.626-2.579-12.775
		c-0.442-4.178-0.731-7.781-1.597-10.804c-0.112-0.377-0.186-0.784-0.322-1.148c-0.142-0.358-0.285-0.719-0.429-1.082
		c-0.153-0.359-0.244-0.749-0.438-1.099c-0.189-0.353-0.378-0.707-0.569-1.064c-0.19-0.347-0.361-0.752-0.559-1.067
		c-0.207-0.287-0.407-0.579-0.602-0.879c-0.194-0.3-0.383-0.608-0.567-0.926c-0.025-0.066-0.126-0.182-0.232-0.301l-0.301-0.347
		l-0.604-0.696c-0.403-0.465-0.808-0.932-1.215-1.4l-0.611-0.704l-0.038-0.044c0.691,0.729,0.173,0.185,0.318,0.339l-0.066-0.061
		l-0.132-0.123l-0.264-0.247c-0.699-0.665-1.403-1.336-2.112-2.01c-0.74-0.547-1.474-1.112-2.205-1.699
		c-0.767-0.457-1.538-0.917-2.312-1.378c-3.151-1.634-6.909-2.443-12.095-3.15l-2.038-0.296l-1.018-0.148l-1.092-0.186l-2.194-0.385
		c-0.747-0.147-1.537-0.346-2.3-0.521c-1.52-0.309-3.114-0.863-4.669-1.37c-0.782-0.228-1.548-0.591-2.314-0.92l-2.282-1.017
		c-1.46-0.782-2.871-1.631-4.277-2.474c-1.412-1.023-2.798-2.072-4.145-3.136c-1.031-0.92-1.868-1.747-2.802-2.616l-1.011-0.964
		l-0.742-0.838c-0.49-0.56-0.978-1.118-1.465-1.673c-0.479-0.565-0.974-1.094-1.428-1.686c-0.436-0.618-0.871-1.234-1.303-1.846
		c-0.426-0.616-0.849-1.229-1.27-1.838c-0.402-0.627-0.743-1.314-1.108-1.966c-0.354-0.661-0.705-1.318-1.055-1.972
		c-0.347-0.653-0.585-1.361-0.874-2.035c-0.271-0.682-0.541-1.36-0.809-2.034c-0.251-0.676-0.416-1.357-0.621-2.029
		c-1.578-5.423-1.864-10.24-2.281-13.938c-0.375-3.74-0.905-6.527-1.63-8.857c-0.22-0.558-0.434-1.097-0.64-1.618
		c-0.104-0.261-0.189-0.525-0.298-0.772c-0.13-0.239-0.257-0.474-0.382-0.704c-0.495-0.919-0.911-1.831-1.386-2.417
		c-0.218-0.33-0.424-0.642-0.617-0.935c-0.094-0.15-0.186-0.295-0.274-0.435l-0.129-0.209l-0.223-0.257
		c-0.585-0.674-1.082-1.247-1.485-1.712c-0.806-0.93-1.237-1.426-1.237-1.426c-2.715-3.129-2.378-7.867,0.751-10.582
		c3.046-2.642,7.616-2.394,10.361,0.507L86.864,53.818z"/>
</g>
<g>
	<path fill="#FFFFFF" d="M136.672,5.01c0,0,0.45,0.478,1.295,1.373c0.422,0.448,0.943,1,1.555,1.649l0.234,0.248
		c0.093,0.119,0.189,0.24,0.285,0.363c0.193,0.248,0.392,0.504,0.597,0.768c0.406,0.535,0.838,1.103,1.293,1.704
		c0.975,1.209,1.722,2.566,2.59,4.057c0.214,0.374,0.433,0.755,0.656,1.143c0.201,0.4,0.379,0.824,0.572,1.248
		c0.375,0.856,0.763,1.743,1.164,2.66c1.387,3.721,2.3,8.036,2.876,12.113c0.6,4.095,1.072,7.843,2.191,11.053
		c1.09,3.218,2.861,6.112,5.54,9l1.022,1.075l0.509,0.544c-0.135-0.127,0.346,0.332-0.294-0.276l0.044,0.038l0.088,0.077
		l0.177,0.153l0.354,0.307l1.421,1.233l0.714,0.62l0.358,0.311c0.117,0.099,0.252,0.228,0.326,0.258
		c0.705,0.422,1.383,0.866,2.045,1.346c0.818,0.424,1.64,0.851,2.465,1.279c3.353,1.487,7.175,2.069,12.38,2.561l2.049,0.215
		l1.024,0.108l1.1,0.146l2.213,0.305c0.755,0.122,1.555,0.295,2.329,0.444c1.54,0.257,3.164,0.764,4.755,1.225
		c0.799,0.205,1.585,0.548,2.373,0.856l2.35,0.959c1.505,0.745,2.974,1.563,4.429,2.377c1.343,0.915,2.673,1.844,3.985,2.783
		c1.211,0.99,2.352,2.016,3.509,3.029l0.43,0.381l0.215,0.191L210,75.03c0.174,0.181-0.315-0.338,0.405,0.418l0.04,0.042l0.64,0.678
		c0.426,0.451,0.85,0.901,1.272,1.349l0.632,0.67l0.315,0.334c0.102,0.105,0.206,0.214,0.35,0.404
		c0.526,0.678,1.049,1.353,1.57,2.025c0.507,0.685,1.012,1.366,1.514,2.044c0.465,0.68,0.822,1.348,1.229,2.022
		c0.39,0.676,0.777,1.348,1.162,2.017c0.382,0.67,0.656,1.397,0.98,2.09c0.306,0.704,0.61,1.403,0.912,2.098
		c0.284,0.698,0.481,1.399,0.717,2.094c0.222,0.697,0.443,1.39,0.662,2.078c0.161,0.669,0.321,1.333,0.48,1.992
		c0.15,0.658,0.298,1.31,0.446,1.958c0.108,0.611,0.214,1.217,0.32,1.819c0.101,0.595,0.201,1.185,0.3,1.769
		c0.079,0.543,0.157,1.081,0.235,1.614c0.147,1.005,0.292,1.991,0.433,2.957c0.532,3.669,1.176,6.176,1.929,8.194
		c0.234,0.474,0.449,0.934,0.648,1.382c0.103,0.222,0.187,0.448,0.296,0.658c0.128,0.202,0.253,0.4,0.375,0.594
		c0.487,0.777,0.851,1.518,1.407,2.132c0.512,0.625,0.88,1.207,1.325,1.69c0.464,0.479,0.859,0.886,1.18,1.217
		c0.628,0.669,0.963,1.026,0.963,1.026l0.697,0.742c4.156,4.428,3.936,11.388-0.493,15.544c-4.428,4.156-11.388,3.936-15.544-0.493
		c-0.062-0.066-0.156-0.17-0.216-0.237c0,0-0.546-0.617-1.569-1.772c-0.505-0.582-1.128-1.3-1.861-2.144
		c-0.717-0.87-1.468-2.016-2.329-3.231c-0.893-1.182-1.693-2.709-2.569-4.342c-0.217-0.409-0.437-0.827-0.663-1.253
		c-0.203-0.437-0.381-0.9-0.576-1.362c-0.372-0.932-0.757-1.898-1.156-2.896c-1.36-4.032-2.16-8.626-2.579-12.775
		c-0.442-4.178-0.731-7.781-1.597-10.804c-0.112-0.377-0.186-0.784-0.322-1.148c-0.142-0.358-0.285-0.719-0.429-1.082
		c-0.153-0.359-0.244-0.749-0.438-1.099c-0.189-0.353-0.378-0.707-0.569-1.064c-0.19-0.347-0.361-0.752-0.559-1.067
		c-0.207-0.287-0.407-0.579-0.602-0.879c-0.194-0.3-0.383-0.608-0.567-0.926c-0.025-0.066-0.126-0.182-0.232-0.301l-0.301-0.347
		l-0.604-0.696c-0.403-0.465-0.808-0.932-1.215-1.4l-0.611-0.704l-0.038-0.044c0.691,0.729,0.173,0.185,0.318,0.339l-0.066-0.061
		l-0.132-0.123l-0.264-0.247c-0.699-0.665-1.403-1.336-2.112-2.01c-0.74-0.547-1.474-1.112-2.205-1.699
		c-0.767-0.457-1.538-0.917-2.312-1.378c-3.151-1.634-6.909-2.443-12.095-3.15l-2.038-0.296l-1.018-0.148l-1.092-0.186l-2.194-0.385
		c-0.747-0.147-1.537-0.346-2.3-0.521c-1.52-0.309-3.113-0.863-4.669-1.37c-0.782-0.228-1.548-0.591-2.314-0.92l-2.282-1.017
		c-1.46-0.782-2.871-1.631-4.277-2.474c-1.412-1.023-2.798-2.072-4.145-3.136c-1.031-0.92-1.868-1.747-2.802-2.616l-1.011-0.964
		l-0.742-0.838c-0.49-0.56-0.978-1.118-1.465-1.673c-0.479-0.565-0.974-1.094-1.428-1.686c-0.436-0.618-0.871-1.234-1.303-1.846
		c-0.426-0.616-0.849-1.229-1.27-1.838c-0.402-0.627-0.743-1.314-1.108-1.966c-0.354-0.661-0.705-1.318-1.055-1.972
		c-0.347-0.653-0.585-1.361-0.874-2.035c-0.271-0.682-0.541-1.36-0.809-2.034c-0.251-0.676-0.416-1.357-0.621-2.029
		c-1.578-5.423-1.864-10.24-2.281-13.938c-0.375-3.74-0.905-6.527-1.63-8.857c-0.22-0.558-0.434-1.097-0.64-1.618
		c-0.104-0.261-0.189-0.525-0.298-0.772c-0.13-0.239-0.257-0.474-0.382-0.704c-0.495-0.919-0.911-1.831-1.386-2.417
		c-0.218-0.33-0.424-0.642-0.617-0.935c-0.094-0.15-0.186-0.295-0.274-0.435l-0.129-0.209l-0.223-0.257
		c-0.585-0.674-1.082-1.247-1.485-1.712c-0.806-0.93-1.237-1.426-1.237-1.426c-2.715-3.129-2.378-7.867,0.751-10.582
		c3.046-2.642,7.616-2.394,10.361,0.507L136.672,5.01z"/>
</g>
<g>
	<path fill="#FFFFFF" d="M145.291,206.005l2.222,37.02c0.311,5.176-3.633,9.624-8.809,9.934c-0.409,0.025-0.867,0.018-1.266-0.009
		l-36.982-2.777c-4.14-0.311-7.244-3.919-6.933-8.059c0.285-3.798,3.346-6.723,7.046-6.941l37.02-2.222l-10.075,9.925l2.777-36.982
		c0.311-4.14,3.919-7.244,8.059-6.933C142.148,199.245,145.073,202.306,145.291,206.005z"/>
</g>
<g>
	<path fill="#FFFFFF" d="M194.678,156.619l4.722,37.039c0.776,6.088-3.53,11.652-9.618,12.428c-0.994,0.127-2.028,0.108-2.976-0.022
		l-36.964-5.277c-4.138-0.591-7.013-4.424-6.423-8.562c0.492-3.447,3.241-6.016,6.535-6.438l37.039-4.722l-12.593,12.406
		l5.277-36.964c0.591-4.138,4.424-7.013,8.562-6.422C191.687,150.576,194.257,153.325,194.678,156.619z"/>
</g>
<g>
	<path fill="#FFFFFF" d="M244.511,106.786l2.222,37.02c0.311,5.176-3.633,9.624-8.809,9.934c-0.409,0.025-0.867,0.018-1.266-0.009
		l-36.982-2.777c-4.14-0.311-7.244-3.919-6.933-8.059c0.285-3.797,3.346-6.723,7.046-6.941l37.02-2.222l-10.075,9.925l2.777-36.982
		c0.311-4.14,3.919-7.244,8.059-6.933C241.368,100.025,244.293,103.086,244.511,106.786z"/>
</g>
</svg>
